<svg id="svg" version="1.1" xmlns="http://www.w3.org/2000/svg" xmlns:xlink="http://www.w3.org/1999/xlink" width="400" height="565.8064516129032" viewBox="0, 0, 400,565.8064516129032"><g id="svgg"><path id="path0" d="M171.816 146.945 C 171.167 147.046,169.999 147.138,169.220 147.149 C 168.441 147.161,167.433 147.285,166.980 147.426 C 166.526 147.567,165.943 147.723,165.684 147.774 C 165.425 147.825,164.788 147.969,164.269 148.094 C 163.750 148.220,162.636 148.421,161.792 148.541 C 157.540 149.147,148.675 153.927,143.775 158.255 C 141.759 160.035,140.445 161.224,139.986 161.684 C 138.599 163.070,135.677 166.489,135.280 167.190 C 135.161 167.400,134.997 167.624,134.914 167.689 C 134.832 167.754,134.508 168.178,134.193 168.632 C 133.879 169.086,133.537 169.564,133.435 169.693 C 132.927 170.335,132.075 171.745,132.075 171.944 C 132.075 172.068,131.982 172.170,131.868 172.170 C 131.754 172.170,131.521 172.515,131.351 172.936 C 131.180 173.358,130.969 173.756,130.882 173.821 C 130.616 174.018,128.066 179.327,128.066 179.683 C 128.066 179.865,127.762 180.929,127.390 182.047 C 125.625 187.358,125.144 196.015,126.390 200.072 C 126.517 200.487,126.778 201.515,126.971 202.358 C 127.573 204.996,128.023 206.493,128.620 207.842 L 129.196 209.146 127.511 210.300 C 126.584 210.934,125.507 211.606,125.118 211.793 C 124.729 211.979,123.933 212.451,123.349 212.842 C 122.765 213.233,121.598 213.910,120.755 214.348 C 109.096 220.398,112.359 233.882,126.415 237.737 C 126.999 237.897,127.901 238.185,128.420 238.376 C 128.939 238.567,130.531 238.986,131.958 239.306 C 133.384 239.625,135.029 239.998,135.613 240.135 C 138.334 240.769,144.465 240.610,146.344 239.856 C 146.604 239.752,147.347 239.530,147.995 239.362 C 149.447 238.988,153.034 237.242,154.531 236.180 C 155.142 235.746,155.680 235.468,155.728 235.561 C 155.965 236.024,155.123 243.080,154.119 249.057 C 153.912 250.289,153.649 251.987,153.533 252.830 C 153.103 255.978,152.467 259.368,151.896 261.557 C 151.164 264.367,150.448 266.847,150.337 266.958 C 150.239 267.056,148.122 265.642,147.877 265.315 C 147.557 264.887,145.644 264.128,145.181 264.244 C 144.618 264.385,139.530 269.279,138.198 270.959 C 137.749 271.526,137.276 272.110,137.146 272.257 C 135.156 274.513,134.894 275.164,135.397 276.606 C 135.626 277.261,135.575 277.446,134.920 278.351 C 133.603 280.172,131.824 282.838,131.270 283.823 C 130.971 284.354,130.482 285.212,130.182 285.731 C 128.830 288.072,128.538 288.762,128.538 289.606 C 128.538 290.691,128.210 290.802,124.999 290.802 C 122.125 290.802,121.036 291.349,119.736 293.447 C 119.155 294.385,119.198 296.690,119.811 297.470 C 120.403 298.222,120.403 298.474,119.814 298.887 C 119.319 299.233,117.921 302.090,116.671 305.307 C 113.798 312.702,112.452 323.077,113.560 329.278 C 114.571 334.938,115.195 336.885,117.590 341.863 C 119.853 346.567,121.538 348.725,125.241 351.663 C 126.354 352.546,127.179 353.054,130.871 355.131 C 132.735 356.179,134.860 357.688,136.371 359.035 C 140.999 363.163,150.794 369.556,154.127 370.624 C 154.906 370.873,155.649 371.148,155.778 371.236 C 156.574 371.773,160.850 372.996,163.208 373.361 C 163.921 373.471,165.248 373.738,166.156 373.953 C 167.064 374.169,168.390 374.466,169.104 374.613 C 170.352 374.872,170.404 374.913,170.484 375.708 C 170.591 376.771,169.685 383.059,168.852 387.028 C 167.967 391.253,167.462 394.189,167.454 395.165 C 167.444 396.310,167.191 396.755,166.488 396.862 C 166.196 396.907,165.842 397.037,165.702 397.150 C 165.563 397.264,164.917 397.521,164.269 397.721 C 163.620 397.920,162.506 398.294,161.792 398.551 C 161.079 398.807,159.699 399.251,158.726 399.537 C 157.754 399.823,155.896 400.398,154.599 400.815 C 151.085 401.943,150.046 402.211,146.816 402.825 C 143.486 403.458,142.745 403.616,141.646 403.921 C 138.217 404.874,138.149 407.928,141.534 408.942 C 142.796 409.320,145.810 411.037,148.095 412.679 C 148.673 413.094,150.022 414.481,150.695 415.350 C 150.896 415.611,151.291 416.101,151.571 416.438 C 151.852 416.776,152.223 417.328,152.396 417.666 C 152.570 418.003,152.771 418.331,152.843 418.396 C 152.915 418.461,153.206 419.014,153.489 419.625 C 154.259 421.289,154.753 421.458,157.382 420.957 C 164.805 419.544,172.494 419.514,175.594 420.885 C 178.995 422.389,178.894 422.539,179.468 415.094 C 179.583 413.603,179.794 411.374,179.938 410.142 C 180.555 404.835,180.652 404.030,180.893 402.215 C 181.224 399.712,181.241 389.475,180.919 386.055 C 180.781 384.580,180.638 381.760,180.603 379.788 L 180.540 376.204 181.485 376.314 C 183.623 376.564,189.556 376.843,190.782 376.751 C 191.507 376.697,194.965 376.545,198.467 376.413 C 208.379 376.041,215.119 375.440,218.170 374.656 C 218.758 374.505,218.775 374.538,219.058 376.343 C 219.217 377.355,219.512 379.192,219.713 380.425 C 220.654 386.179,220.873 387.769,221.222 391.392 C 221.360 392.818,221.529 394.529,221.599 395.193 C 221.705 396.214,221.659 396.423,221.298 396.545 C 221.064 396.624,220.236 397.052,219.458 397.496 C 218.679 397.940,216.875 398.889,215.448 399.604 C 212.176 401.243,209.990 402.482,206.771 404.521 C 205.371 405.407,204.172 406.132,204.107 406.132 C 204.042 406.132,203.277 406.612,202.407 407.200 C 201.537 407.787,200.627 408.397,200.385 408.556 C 196.115 411.356,196.338 413.205,201.061 414.146 C 204.369 414.805,207.032 416.194,209.852 418.731 C 211.243 419.982,213.915 424.571,213.915 425.708 C 213.915 426.419,214.938 426.969,215.919 426.785 C 216.373 426.699,216.745 426.542,216.745 426.436 C 216.745 426.028,219.504 424.398,221.462 423.650 C 225.091 422.264,232.951 421.968,236.845 423.072 C 239.187 423.736,239.387 423.539,239.387 420.563 C 239.387 419.305,239.276 417.904,239.141 417.451 C 238.891 416.611,238.774 416.088,238.138 412.972 C 237.612 410.392,237.546 410.045,237.040 407.193 C 236.787 405.767,236.411 404.015,236.205 403.302 C 235.541 401.005,235.385 400.386,235.020 398.585 C 234.823 397.612,234.565 396.392,234.448 395.873 C 234.330 395.354,234.120 394.186,233.981 393.278 C 233.336 389.085,232.971 386.906,232.891 386.776 C 232.843 386.698,232.638 385.794,232.435 384.768 C 232.233 383.741,231.963 382.450,231.836 381.899 C 231.708 381.347,231.503 380.445,231.381 379.894 C 231.258 379.343,230.947 377.989,230.690 376.887 C 230.433 375.784,230.104 374.351,229.959 373.703 C 229.814 373.054,229.643 372.347,229.579 372.132 C 229.493 371.842,229.664 371.696,230.235 371.570 C 230.661 371.477,231.593 371.159,232.308 370.865 C 233.023 370.571,234.245 370.095,235.024 369.808 C 235.802 369.520,236.889 369.085,237.438 368.841 C 237.988 368.596,238.500 368.396,238.574 368.396 C 238.649 368.396,239.049 368.149,239.461 367.846 C 239.874 367.544,241.380 366.785,242.807 366.160 C 248.964 363.463,260.221 356.891,263.208 354.250 C 263.532 353.963,264.106 353.568,264.483 353.372 C 264.860 353.176,265.284 352.919,265.426 352.801 C 266.397 351.991,266.877 351.627,268.201 350.696 C 270.071 349.380,271.932 347.537,271.939 346.994 C 271.942 346.766,272.152 346.315,272.406 345.991 C 272.659 345.666,272.869 345.314,272.872 345.208 C 272.875 345.102,273.143 344.668,273.467 344.243 C 273.791 343.817,274.057 343.393,274.057 343.299 C 274.057 343.204,274.352 342.684,274.712 342.142 C 275.073 341.599,275.523 340.837,275.713 340.448 C 275.902 340.059,276.379 339.210,276.774 338.561 C 277.720 337.004,277.966 336.467,278.484 334.818 C 278.934 333.385,279.545 332.901,283.196 331.085 C 283.488 330.939,283.726 330.744,283.726 330.651 C 283.726 330.558,284.045 330.350,284.434 330.189 C 284.823 330.027,285.142 329.822,285.142 329.732 C 285.142 329.642,285.593 329.318,286.144 329.011 C 286.695 328.705,287.199 328.388,287.264 328.307 C 287.329 328.226,287.807 327.847,288.325 327.465 C 288.844 327.084,289.322 326.712,289.387 326.639 C 289.452 326.565,289.745 326.342,290.038 326.142 C 291.586 325.085,297.997 318.984,299.437 317.197 C 307.186 307.586,306.630 302.215,297.406 297.553 C 294.750 296.211,294.340 296.042,291.981 295.326 C 285.276 293.289,285.926 293.680,285.492 291.414 C 284.375 285.573,285.576 278.496,288.513 273.620 C 290.556 270.229,290.802 269.537,290.802 267.181 C 290.802 261.490,286.127 257.981,276.061 256.115 C 272.745 255.500,266.045 255.757,260.142 256.726 C 259.039 256.907,257.394 257.173,256.486 257.317 C 255.578 257.462,254.528 257.637,254.152 257.708 C 253.366 257.855,253.360 257.927,254.351 255.307 C 255.649 251.878,255.848 251.119,256.863 245.755 C 256.998 245.041,257.208 244.073,257.328 243.603 C 257.449 243.133,257.616 241.942,257.700 240.957 L 257.851 239.165 257.169 238.906 C 255.841 238.401,250.225 240.889,244.768 244.399 C 243.689 245.093,242.678 245.739,242.521 245.834 C 242.280 245.980,242.749 244.702,243.632 242.807 C 243.753 242.547,244.075 241.592,244.347 240.684 C 244.619 239.776,244.986 238.608,245.161 238.090 C 246.576 233.905,248.034 227.458,247.657 227.056 C 247.272 226.645,244.393 226.862,242.099 227.475 C 240.802 227.822,239.422 228.186,239.033 228.285 C 237.056 228.784,234.448 229.861,229.599 232.179 C 227.575 233.146,227.638 233.215,228.386 230.846 C 228.968 229.002,229.954 225.741,230.403 224.175 C 230.836 222.667,231.778 218.328,232.298 215.448 C 232.415 214.800,232.634 213.581,232.785 212.740 C 234.061 205.637,234.062 193.812,232.788 187.330 C 232.640 186.580,232.407 185.383,232.268 184.670 C 230.427 175.174,220.672 163.217,208.962 156.102 C 208.119 155.590,206.913 154.852,206.281 154.463 C 204.785 153.540,199.546 150.820,198.939 150.650 C 198.679 150.578,197.565 150.175,196.462 149.756 C 190.026 147.308,178.168 145.955,171.816 146.945 M183.330 150.238 C 198.371 151.485,216.758 162.779,224.831 175.732 C 226.432 178.300,228.604 184.102,228.922 186.661 C 228.986 187.173,229.085 187.668,229.143 187.761 C 229.997 189.143,230.524 199.537,230.072 206.102 C 229.445 215.214,227.360 224.029,222.591 237.736 C 218.568 249.296,217.858 251.647,217.073 255.990 C 216.382 259.820,216.406 265.392,217.127 268.088 C 217.277 268.651,217.528 268.510,211.439 271.275 C 201.866 275.621,190.815 278.920,182.460 279.926 C 177.649 280.506,167.164 276.767,155.791 270.416 C 152.847 268.772,152.966 268.919,153.539 267.623 C 154.151 266.240,155.735 260.018,156.226 257.075 C 157.433 249.828,159.434 235.142,159.434 233.533 C 159.434 232.725,159.438 232.722,160.318 232.876 C 177.819 235.932,194.241 231.175,204.855 219.974 C 208.030 216.625,208.489 215.513,206.982 214.827 C 206.168 214.456,205.573 214.878,203.221 217.496 C 196.046 225.486,183.602 230.884,172.325 230.898 C 170.244 230.901,162.306 230.222,161.714 229.991 C 160.780 229.626,167.994 223.187,173.767 219.233 C 178.458 216.020,179.779 214.278,179.784 211.298 C 179.791 206.957,176.391 204.785,169.458 204.701 C 167.901 204.683,166.415 204.559,166.156 204.427 C 165.057 203.868,162.256 201.602,160.841 200.127 C 158.924 198.128,157.853 197.546,156.115 197.557 C 154.750 197.566,154.937 197.485,150.047 200.171 C 147.435 201.606,142.878 202.918,139.505 203.206 C 137.205 203.402,136.397 203.788,134.128 205.774 C 132.050 207.594,132.074 207.589,131.508 206.309 C 129.953 202.786,128.567 194.971,128.889 191.536 C 129.642 183.495,130.671 180.409,134.913 173.467 C 140.495 164.333,149.781 156.428,159.444 152.586 C 161.759 151.665,167.748 150.573,172.759 150.158 C 174.916 149.979,180.733 150.023,183.330 150.238 M140.641 181.355 C 136.710 183.139,135.695 198.010,139.289 201.165 C 143.516 204.877,147.150 196.377,145.765 186.017 C 145.182 181.658,143.447 180.080,140.641 181.355 M182.130 182.607 C 179.588 183.422,178.433 187.121,178.430 194.458 C 178.427 200.395,179.252 202.669,181.642 203.312 C 185.106 204.245,187.025 200.163,187.025 191.863 C 187.025 184.069,185.654 181.477,182.130 182.607 M156.822 201.288 C 157.188 201.477,157.935 202.167,158.482 202.820 C 161.538 206.470,164.545 207.982,169.340 208.280 C 174.830 208.621,176.061 209.202,176.061 211.453 C 176.061 213.011,175.137 214.070,171.816 216.319 C 167.701 219.106,164.698 221.619,160.613 225.693 C 150.999 235.282,144.493 238.208,136.675 236.459 C 128.933 234.728,125.691 233.703,123.006 232.135 C 115.227 227.594,115.556 221.676,123.846 216.998 C 129.332 213.903,135.843 209.293,137.241 207.513 C 137.675 206.960,137.954 206.870,139.679 206.723 C 143.845 206.369,149.564 204.636,152.594 202.808 C 154.276 201.794,155.786 200.992,156.085 200.953 C 156.124 200.948,156.455 201.098,156.822 201.288 M147.995 207.821 C 145.939 208.627,145.478 209.666,146.656 210.843 C 148.087 212.274,151.651 210.986,151.651 209.038 C 151.651 207.519,150.091 207.000,147.995 207.821 M157.155 208.367 C 155.916 209.235,156.432 210.864,158.430 212.389 C 160.032 213.613,161.792 213.200,161.792 211.600 C 161.792 211.100,161.046 210.142,160.657 210.142 C 160.551 210.142,160.232 209.728,159.948 209.223 C 159.238 207.960,158.194 207.640,157.155 208.367 M243.868 230.622 C 243.868 231.104,241.207 240.019,240.636 241.453 C 238.637 246.468,234.788 252.124,231.214 255.301 C 230.196 256.206,227.367 258.912,224.927 261.315 C 222.487 263.718,220.351 265.716,220.180 265.755 C 219.368 265.939,219.506 260.201,220.430 255.307 C 221.030 252.135,225.434 238.327,225.999 237.846 C 226.478 237.440,230.923 235.077,232.075 234.617 C 232.919 234.280,234.443 233.612,235.463 233.133 C 237.887 231.993,243.868 230.207,243.868 230.622 M253.897 243.691 C 253.844 243.853,253.575 245.153,253.301 246.580 C 251.253 257.231,248.986 260.832,242.157 264.290 C 238.156 266.316,226.483 270.273,224.481 270.282 C 224.279 270.283,222.877 268.277,222.877 267.988 C 222.877 267.875,224.549 266.255,226.592 264.388 C 228.635 262.521,231.792 259.495,233.608 257.663 C 240.177 251.038,254.795 240.971,253.897 243.691 M277.005 259.870 C 286.909 262.094,289.188 265.229,285.509 271.565 C 282.460 276.816,281.722 279.796,281.722 286.851 C 281.722 289.803,281.712 292.217,281.700 292.217 C 281.438 292.216,274.052 289.637,273.172 289.239 C 272.491 288.931,271.342 288.412,270.618 288.084 L 269.302 287.489 270.467 286.215 C 273.624 282.761,271.773 278.944,266.274 277.566 C 263.270 276.813,249.854 277.217,244.811 278.212 C 235.203 280.108,230.521 282.614,233.059 284.501 L 233.689 284.970 236.243 284.019 C 242.576 281.661,247.750 280.760,256.368 280.515 C 266.850 280.217,270.179 281.429,267.279 284.487 C 263.591 288.378,265.740 290.339,278.496 294.722 C 281.697 295.822,284.688 296.810,285.142 296.918 C 285.596 297.026,287.937 297.794,290.346 298.624 C 303.329 303.098,304.236 307.026,294.641 317.218 C 286.975 325.362,277.111 331.436,264.387 335.847 C 260.884 337.061,260.390 339.132,263.257 340.589 C 265.740 341.852,268.632 344.298,268.632 345.136 C 268.632 346.704,263.955 348.692,258.327 349.516 C 252.952 350.303,243.142 349.139,235.421 346.798 C 230.041 345.168,226.335 343.650,223.531 341.931 C 222.134 341.074,220.930 341.945,221.326 343.526 C 221.819 345.489,232.776 349.992,240.802 351.530 C 248.556 353.015,252.456 353.413,256.164 353.094 C 257.635 352.968,258.870 352.895,258.908 352.933 C 259.252 353.277,248.268 359.773,243.666 361.947 C 235.078 366.002,226.943 369.138,222.052 370.280 C 214.946 371.940,209.789 372.549,197.877 373.137 C 186.319 373.708,179.940 373.307,169.222 371.334 C 167.406 371.000,165.336 370.622,164.623 370.494 C 162.099 370.041,155.157 367.617,152.963 366.423 C 140.097 359.422,136.313 355.420,132.531 344.811 C 125.742 325.773,125.297 310.878,131.045 295.098 L 131.413 294.088 132.246 295.452 C 132.704 296.202,133.357 297.249,133.697 297.779 C 134.038 298.308,134.634 299.253,135.024 299.878 C 139.279 306.711,144.325 313.257,148.035 316.757 C 154.695 323.040,170.571 330.896,176.607 330.896 C 177.972 330.896,199.467 324.382,205.542 322.127 C 212.372 319.592,221.699 315.784,226.769 313.461 C 227.288 313.223,228.774 312.582,230.071 312.035 C 233.473 310.602,233.455 310.628,232.913 308.081 C 232.671 306.944,232.395 305.483,232.300 304.835 C 232.205 304.186,231.681 302.382,231.136 300.825 C 229.751 296.874,229.625 296.473,229.736 296.386 C 229.791 296.344,230.764 295.647,231.899 294.837 C 234.095 293.270,234.216 293.048,233.623 291.694 C 233.436 291.268,232.735 289.593,232.064 287.972 C 230.998 285.394,227.949 278.335,226.267 274.551 C 225.956 273.851,225.729 273.252,225.763 273.221 C 225.797 273.190,227.099 272.829,228.656 272.418 C 238.026 269.946,247.886 265.487,250.591 262.498 C 250.825 262.240,251.194 262.028,251.410 262.028 C 251.627 262.028,252.570 261.768,253.505 261.450 C 254.974 260.950,259.203 260.226,265.212 259.444 C 267.977 259.085,274.567 259.323,277.005 259.870 M147.642 269.343 C 151.782 272.104,162.790 277.905,167.272 279.689 C 177.129 283.613,180.886 283.898,190.921 281.480 C 199.609 279.387,214.478 273.800,219.040 270.914 C 219.589 270.567,220.141 270.283,220.268 270.283 C 220.620 270.283,222.382 273.434,223.292 275.693 C 223.740 276.804,224.881 279.517,225.829 281.722 C 226.777 283.927,228.102 287.058,228.773 288.679 C 229.445 290.301,230.044 291.747,230.105 291.892 C 230.379 292.547,221.733 297.781,216.473 300.146 C 207.197 304.315,191.424 308.962,186.550 308.962 C 184.186 308.962,183.103 310.217,184.314 311.554 C 185.761 313.153,194.408 311.432,208.019 306.836 C 213.687 304.922,220.221 302.067,224.640 299.571 C 225.804 298.914,226.783 298.402,226.815 298.434 C 227.216 298.835,229.268 305.687,229.596 307.722 C 229.748 308.662,229.718 308.738,229.102 308.972 C 228.741 309.109,227.750 309.545,226.900 309.941 C 214.397 315.765,202.459 320.291,189.976 323.942 C 175.104 328.292,176.436 327.989,174.369 327.489 C 169.063 326.203,163.331 323.585,156.157 319.170 C 150.438 315.651,146.271 311.233,140.185 302.241 C 130.962 288.611,131.800 290.673,133.820 286.587 C 135.189 283.820,137.158 280.643,137.487 280.672 C 137.559 280.678,137.989 281.276,138.443 282.002 C 139.444 283.600,144.150 288.421,148.898 292.712 C 155.350 298.544,159.839 300.930,161.006 299.147 C 161.633 298.191,161.092 297.518,158.532 296.070 C 155.452 294.329,154.986 293.957,149.248 288.652 C 142.835 282.724,139.677 278.898,138.999 276.235 C 138.796 275.442,145.486 267.979,146.086 268.328 C 146.228 268.411,146.928 268.867,147.642 269.343 M127.165 297.212 C 123.063 309.960,123.020 322.572,127.028 337.203 C 128.282 341.783,129.870 346.428,131.275 349.631 C 132.521 352.469,132.627 352.363,130.027 350.875 C 120.182 345.241,114.939 332.135,116.846 317.925 C 117.741 311.251,121.036 301.693,123.197 299.501 C 124.383 298.298,124.446 297.704,123.521 296.435 C 122.559 295.114,122.965 294.710,125.413 294.555 C 126.613 294.480,127.666 294.347,127.752 294.261 C 128.164 293.848,128.029 294.527,127.165 297.212 M273.152 338.253 C 270.865 342.244,270.874 342.233,270.408 341.581 C 270.205 341.296,269.293 340.509,268.383 339.832 C 267.473 339.156,266.812 338.522,266.914 338.424 C 267.177 338.171,274.625 335.159,274.729 335.263 C 274.776 335.311,274.067 336.656,273.152 338.253 M226.526 373.408 C 226.591 373.700,226.855 374.947,227.112 376.179 C 227.370 377.412,227.891 379.746,228.270 381.368 C 229.135 385.061,229.840 388.512,230.196 390.802 C 231.005 395.995,231.436 398.036,232.053 399.591 C 232.429 400.535,232.810 401.943,232.900 402.718 C 233.147 404.829,234.643 413.529,235.130 415.684 C 235.364 416.722,235.616 417.902,235.690 418.307 L 235.825 419.043 231.594 418.922 C 225.198 418.738,221.784 419.332,218.187 421.254 C 217.229 421.766,216.420 422.155,216.390 422.118 C 216.359 422.082,216.146 421.680,215.916 421.226 C 213.943 417.330,209.670 413.546,205.338 411.860 C 204.542 411.550,203.689 411.216,203.442 411.118 C 203.042 410.959,203.080 410.886,203.796 410.455 C 204.238 410.189,206.085 409.021,207.901 407.860 C 211.631 405.475,214.205 403.996,218.211 401.932 C 223.461 399.227,224.521 398.367,224.534 396.801 C 224.537 396.420,224.628 395.726,224.737 395.259 C 225.018 394.049,223.939 385.028,222.409 375.798 C 222.068 373.740,222.083 373.634,222.708 373.753 C 223.003 373.810,223.826 373.645,224.535 373.387 C 226.218 372.776,226.384 372.777,226.526 373.408 M176.238 375.608 L 177.123 375.760 177.125 378.623 C 177.126 380.198,177.287 384.033,177.483 387.146 C 178.073 396.536,177.983 401.065,177.121 405.425 C 176.917 406.455,176.693 408.476,176.150 414.210 C 176.005 415.734,175.805 416.981,175.705 416.981 C 175.606 416.981,174.636 416.812,173.552 416.605 C 170.156 415.956,161.638 416.272,157.512 417.199 L 156.596 417.404 155.136 415.247 C 153.112 412.258,150.847 410.095,147.885 408.322 C 146.509 407.498,145.584 406.810,145.772 406.751 C 145.957 406.693,147.413 406.365,149.007 406.023 C 150.602 405.681,152.884 405.096,154.078 404.724 C 166.642 400.808,168.139 400.183,169.284 398.375 C 170.264 396.829,172.015 390.043,172.882 384.434 C 173.032 383.461,173.243 382.188,173.350 381.604 C 173.457 381.020,173.683 379.345,173.851 377.881 L 174.157 375.221 174.756 375.338 C 175.085 375.403,175.752 375.524,176.238 375.608 " stroke="none" fill="#060404" fill-rule="evenodd"></path><path id="path1" d="M239.858 231.597 C 238.237 232.089,235.902 232.963,234.670 233.539 C 233.438 234.116,232.058 234.733,231.604 234.910 C 230.573 235.313,227.189 237.148,226.465 237.696 C 225.594 238.357,222.378 247.565,221.015 253.302 C 219.949 257.789,219.383 264.533,219.992 265.482 C 220.101 265.653,221.952 264.008,225.033 261.001 C 227.710 258.388,230.629 255.617,231.519 254.844 C 236.483 250.529,240.236 243.590,243.028 233.562 C 243.977 230.155,244.186 230.285,239.858 231.597 M250.713 244.822 C 249.225 245.600,246.678 247.129,245.053 248.221 C 242.277 250.086,241.400 250.763,238.222 253.496 C 237.517 254.103,236.668 254.807,236.335 255.062 C 236.003 255.317,235.416 255.901,235.031 256.359 C 233.784 257.845,228.043 263.366,223.884 267.080 L 222.887 267.971 223.618 269.035 C 224.407 270.181,224.800 270.244,227.005 269.579 C 227.394 269.462,228.508 269.137,229.481 268.858 C 240.112 265.804,247.525 262.001,249.287 258.698 C 251.185 255.140,254.500 243.373,253.597 243.402 C 253.499 243.405,252.202 244.044,250.713 244.822 M143.566 270.597 C 142.328 271.916,140.787 273.639,140.142 274.427 L 138.969 275.858 139.826 277.612 C 140.577 279.147,141.568 280.771,141.973 281.132 C 142.046 281.197,142.572 281.816,143.143 282.508 C 144.125 283.699,150.292 289.538,154.195 292.973 C 155.184 293.843,157.004 295.115,158.241 295.800 C 161.533 297.624,162.066 298.436,160.682 299.525 C 159.341 300.579,154.570 298.058,150.225 293.998 C 149.246 293.083,147.100 291.141,145.456 289.682 C 142.385 286.956,139.036 283.345,138.130 281.782 C 137.848 281.297,137.565 280.904,137.500 280.909 C 136.913 280.953,132.311 289.102,132.311 290.097 C 132.311 290.225,132.662 290.833,133.090 291.450 C 133.519 292.066,134.075 292.971,134.326 293.460 C 134.577 293.949,135.410 295.223,136.178 296.290 C 136.945 297.358,138.686 299.876,140.047 301.887 C 145.596 310.089,149.700 314.747,153.892 317.601 C 160.757 322.275,168.595 326.038,174.181 327.342 L 176.297 327.836 177.948 327.341 C 178.856 327.069,181.044 326.442,182.809 325.948 C 200.483 321.002,210.475 317.366,226.533 310.040 C 227.441 309.626,228.529 309.148,228.950 308.978 C 229.372 308.808,229.717 308.636,229.717 308.595 C 229.717 307.571,227.199 299.054,226.769 298.624 C 226.724 298.579,225.910 298.997,224.959 299.552 C 222.796 300.816,216.770 303.695,214.269 304.659 C 210.280 306.196,207.820 307.083,205.660 307.761 C 204.428 308.147,202.093 308.885,200.472 309.400 C 194.318 311.353,187.701 312.576,185.509 312.164 C 182.783 311.653,183.291 308.962,186.114 308.962 C 188.675 308.962,195.826 307.417,200.236 305.911 C 201.728 305.402,204.116 304.615,205.542 304.163 C 206.969 303.710,208.880 303.059,209.788 302.715 C 210.696 302.371,211.969 301.897,212.618 301.663 C 214.117 301.122,216.006 300.261,218.986 298.760 C 223.310 296.583,225.191 295.474,228.455 293.176 L 230.142 291.989 229.588 290.865 C 229.283 290.247,228.592 288.626,228.053 287.264 C 227.099 284.857,223.648 276.673,222.484 274.057 C 222.035 273.048,220.988 271.196,220.370 270.317 C 220.337 270.270,219.694 270.600,218.941 271.051 C 216.777 272.343,210.549 275.094,205.307 277.072 C 196.810 280.279,187.845 282.585,181.722 283.139 C 176.542 283.608,163.908 279.214,155.842 274.138 C 155.358 273.834,154.921 273.585,154.871 273.585 C 154.661 273.585,148.356 269.928,147.142 269.101 L 145.817 268.199 143.566 270.597 M224.882 373.474 C 224.363 373.661,223.558 373.815,223.092 373.817 L 222.245 373.821 222.403 374.862 C 222.537 375.747,222.852 376.212,224.520 377.987 C 225.597 379.133,226.856 380.572,227.318 381.185 C 228.370 382.582,228.367 382.588,227.818 380.183 C 227.303 377.934,226.765 375.320,226.542 373.998 C 226.378 373.021,226.251 372.981,224.882 373.474 M174.057 377.136 L 174.057 378.855 175.276 380.288 C 175.946 381.077,176.642 381.881,176.821 382.075 C 177.100 382.378,177.124 381.946,176.986 379.127 C 176.796 375.228,177.044 375.787,175.413 375.585 L 174.057 375.417 174.057 377.136 " stroke="none" fill="#f40c04" fill-rule="evenodd"></path><path id="path2" d="M170.047 150.584 C 167.607 150.840,166.527 151.022,162.028 151.939 C 153.201 153.737,140.309 164.380,134.333 174.802 C 131.126 180.394,130.263 182.491,129.738 185.967 C 129.601 186.875,129.381 188.316,129.249 189.170 C 128.579 193.515,129.479 200.441,131.373 205.502 C 132.038 207.279,132.062 207.282,133.766 205.761 C 136.053 203.721,136.810 203.365,139.739 202.954 C 144.684 202.260,148.180 201.129,151.386 199.186 C 155.758 196.537,157.936 196.706,160.955 199.931 C 162.378 201.451,164.213 202.967,165.830 203.958 C 166.567 204.410,167.017 204.481,169.132 204.481 C 176.443 204.482,179.953 206.715,179.953 211.364 C 179.953 214.580,178.853 215.961,173.145 219.915 C 169.717 222.291,165.574 225.743,163.012 228.360 L 161.520 229.884 164.545 230.210 C 168.435 230.629,175.999 230.637,178.184 230.224 C 183.788 229.166,185.208 228.763,188.915 227.182 C 195.186 224.507,199.391 221.557,203.427 217.000 C 205.763 214.362,206.787 213.913,207.652 215.147 C 208.476 216.323,207.649 217.592,203.393 221.683 C 199.675 225.258,197.545 226.591,188.090 231.263 C 183.550 233.506,178.933 235.837,177.830 236.443 C 171.200 240.086,167.945 241.806,159.906 245.913 C 157.711 247.034,157.933 246.646,157.457 250.188 C 157.236 251.836,156.963 253.715,156.852 254.363 C 156.740 255.012,156.517 256.338,156.357 257.311 C 155.693 261.349,153.959 267.723,153.312 268.501 C 153.163 268.682,153.443 268.948,154.200 269.344 C 154.809 269.662,155.943 270.278,156.722 270.713 C 160.239 272.681,166.622 275.781,168.986 276.671 C 172.834 278.119,174.162 278.521,177.594 279.276 C 178.178 279.404,179.046 279.611,179.523 279.735 C 183.605 280.800,199.098 276.548,211.910 270.845 C 217.693 268.272,217.120 268.736,216.728 266.944 C 216.305 265.016,216.299 259.927,216.714 257.193 C 217.430 252.491,218.221 249.807,222.589 237.264 C 223.726 234.001,226.011 226.847,226.544 224.882 C 227.433 221.605,227.411 221.700,228.404 216.981 C 230.433 207.342,230.764 194.441,229.140 188.373 C 228.938 187.621,228.774 186.802,228.774 186.553 C 228.774 186.305,228.626 185.647,228.445 185.091 C 228.264 184.535,227.888 183.337,227.610 182.429 C 225.157 174.436,218.832 167.009,208.611 160.120 C 202.749 156.169,199.657 154.565,194.222 152.654 C 191.764 151.789,191.422 151.699,188.325 151.097 C 183.741 150.204,175.802 149.982,170.047 150.584 M144.086 181.474 C 147.611 183.700,146.651 199.720,142.875 201.671 C 138.949 203.699,136.490 199.285,137.040 191.196 C 137.632 182.481,140.158 178.995,144.086 181.474 M184.909 182.751 C 188.608 184.728,187.998 200.658,184.131 203.088 C 183.075 203.751,181.140 203.611,180.282 202.811 C 176.531 199.310,177.834 183.282,181.935 182.473 C 183.101 182.243,184.142 182.340,184.909 182.751 M264.151 259.713 C 258.960 260.434,254.848 261.186,253.359 261.688 C 252.417 262.005,251.503 262.264,251.327 262.264 C 251.151 262.264,250.648 262.585,250.209 262.976 C 248.031 264.918,245.688 266.417,241.719 268.407 C 237.503 270.522,228.692 275.967,227.856 276.974 C 227.661 277.208,227.923 278.005,228.921 280.211 C 230.279 283.214,232.289 287.938,233.510 290.995 C 234.462 293.380,234.326 294.033,232.304 296.779 L 230.713 298.939 231.543 301.415 C 232.000 302.777,232.451 304.475,232.547 305.189 C 232.642 305.902,232.910 307.308,233.142 308.314 C 233.624 310.405,233.466 310.807,231.947 311.357 C 231.220 311.620,231.170 311.713,231.021 313.107 C 230.923 314.026,230.714 314.712,230.467 314.933 C 229.684 315.631,223.391 318.092,215.566 320.761 C 211.903 322.010,201.918 324.893,195.283 326.617 C 193.272 327.140,190.088 327.999,188.208 328.527 C 177.970 331.399,177.954 331.402,174.032 330.638 C 169.981 329.850,164.753 327.765,160.024 325.053 C 159.375 324.681,158.261 324.057,157.547 323.666 C 151.592 320.407,147.982 317.404,143.074 311.625 C 141.949 310.301,140.439 308.709,139.718 308.087 C 138.316 306.879,136.354 304.629,132.805 300.160 C 130.404 297.136,130.442 297.149,129.852 299.175 C 127.705 306.544,126.894 313.674,127.358 321.105 C 128.176 334.202,134.479 352.718,139.773 357.577 C 141.116 358.809,144.992 361.506,147.877 363.216 C 149.499 364.177,150.879 365.031,150.943 365.113 C 151.229 365.476,155.035 367.272,156.851 367.900 C 157.947 368.280,159.640 368.878,160.613 369.231 C 161.586 369.583,162.807 369.952,163.325 370.051 C 171.579 371.625,173.660 371.966,178.420 372.521 C 186.711 373.489,188.118 373.495,203.656 372.634 C 209.813 372.293,215.567 371.564,220.165 370.541 C 220.684 370.426,221.480 370.255,221.934 370.160 C 223.995 369.734,228.586 368.262,230.529 367.405 C 231.704 366.887,234.232 365.837,236.147 365.071 C 238.062 364.306,239.813 363.577,240.038 363.452 C 240.264 363.326,242.199 362.378,244.340 361.345 C 248.098 359.530,249.296 358.890,252.607 356.930 L 254.154 356.014 251.192 355.987 C 245.687 355.936,239.041 354.439,233.844 352.079 C 228.240 349.534,226.844 348.801,224.115 346.973 L 221.284 345.077 221.114 343.714 C 220.818 341.347,222.114 340.676,224.227 342.099 C 224.901 342.553,225.500 342.925,225.557 342.925 C 225.614 342.925,226.547 343.337,227.630 343.842 C 229.411 344.671,232.020 345.589,236.321 346.898 C 237.994 347.408,242.719 348.399,245.519 348.828 C 246.492 348.977,247.797 349.195,248.420 349.313 C 255.161 350.594,268.396 347.932,268.396 345.296 C 268.396 344.308,265.489 341.851,262.550 340.354 C 260.009 339.061,260.915 336.924,264.554 335.624 C 265.588 335.254,266.901 334.741,267.474 334.483 C 268.046 334.225,269.682 333.537,271.108 332.954 C 281.675 328.639,290.500 322.261,297.178 314.112 C 304.248 305.485,302.488 302.849,286.006 297.377 C 267.412 291.203,265.566 290.268,265.480 286.982 C 265.459 286.192,265.623 285.922,266.926 284.607 C 269.347 282.165,268.381 281.277,262.635 280.661 C 255.047 279.847,237.844 282.357,235.000 284.692 C 233.674 285.780,231.624 284.148,232.365 282.595 C 233.299 280.637,242.388 278.046,251.179 277.231 C 265.513 275.903,272.363 277.897,272.143 283.335 C 272.059 285.423,273.677 287.328,277.476 289.612 C 279.188 290.642,281.232 291.745,281.426 291.745 C 281.468 291.745,281.499 289.490,281.494 286.733 C 281.487 282.207,281.539 281.529,282.032 279.734 C 283.184 275.544,284.068 273.361,285.381 271.462 C 289.503 265.501,286.417 261.901,275.283 259.683 C 273.804 259.388,266.342 259.408,264.151 259.713 " stroke="none" fill="#fbcb53" fill-rule="evenodd"></path><path id="path3" d="M154.953 201.621 C 154.499 201.854,153.491 202.434,152.712 202.911 C 149.828 204.679,143.898 206.511,140.234 206.767 L 138.133 206.914 136.122 208.760 C 133.903 210.797,128.320 214.630,123.939 217.124 C 112.677 223.534,116.564 231.664,132.665 235.378 C 133.833 235.647,135.478 236.038,136.321 236.247 C 143.961 238.142,150.971 235.128,159.996 226.067 C 164.390 221.656,166.596 219.780,170.915 216.780 C 175.757 213.415,176.737 212.140,175.830 210.385 C 175.189 209.147,173.955 208.764,169.658 208.468 C 164.393 208.105,162.326 207.089,158.373 202.920 C 156.600 201.050,156.294 200.934,154.953 201.621 M150.686 207.418 C 153.042 208.636,151.244 211.557,148.137 211.557 C 145.132 211.557,145.203 208.537,148.231 207.573 C 150.015 207.005,149.902 207.012,150.686 207.418 M159.078 208.061 C 159.413 208.213,159.859 208.701,160.070 209.144 C 160.280 209.587,160.693 210.060,160.988 210.194 C 162.570 210.915,161.841 213.443,160.052 213.443 C 159.412 213.443,157.155 211.688,156.725 210.856 C 155.735 208.941,157.197 207.204,159.078 208.061 M222.653 376.267 C 222.638 376.533,223.239 380.703,223.812 384.316 C 225.079 392.296,225.179 396.886,224.117 398.322 C 223.478 399.185,222.069 400.093,218.734 401.791 C 214.609 403.891,204.415 409.928,203.471 410.830 C 203.370 410.926,203.741 411.139,204.297 411.301 C 208.802 412.618,214.982 417.987,216.352 421.774 C 216.501 422.186,216.534 422.185,217.157 421.745 C 220.799 419.176,229.421 417.877,235.183 419.030 C 235.637 419.120,235.868 419.089,235.781 418.949 C 235.403 418.337,232.783 404.053,232.783 402.605 C 232.783 402.227,232.464 401.053,232.073 399.994 C 231.248 397.756,230.814 395.894,230.314 392.453 C 229.343 385.763,228.719 383.190,227.712 381.722 C 226.811 380.408,222.672 375.945,222.653 376.267 M173.598 380.671 C 172.862 385.629,171.966 390.245,171.114 393.455 C 169.926 397.935,169.867 398.113,169.550 398.113 C 169.434 398.113,169.340 398.253,169.340 398.423 C 169.340 398.862,168.212 399.863,167.077 400.431 C 164.812 401.566,152.625 405.422,148.766 406.226 C 147.374 406.515,146.175 406.812,146.103 406.885 C 146.030 406.958,147.010 407.660,148.280 408.446 C 151.826 410.639,153.351 412.184,155.951 416.220 C 156.467 417.021,156.709 417.205,157.132 417.118 C 161.922 416.135,169.119 415.800,172.759 416.391 C 173.927 416.580,175.093 416.764,175.350 416.799 C 175.867 416.870,175.818 417.166,176.407 410.377 C 176.655 407.521,176.895 405.818,177.586 402.005 C 177.836 400.626,177.706 393.025,177.326 386.792 L 177.060 382.429 176.291 381.486 C 175.868 380.967,175.155 380.123,174.707 379.610 L 173.893 378.677 173.598 380.671 " stroke="none" fill="#fb6b23" fill-rule="evenodd"></path><path id="path4" d="M186.557 231.589 C 185.923 231.958,180.373 233.216,177.594 233.621 C 173.925 234.155,163.202 233.796,160.497 233.049 L 159.751 232.844 159.457 235.349 C 158.893 240.161,158.452 243.523,158.236 244.667 C 157.807 246.944,157.452 247.008,164.092 243.604 C 167.432 241.892,171.598 239.695,173.349 238.722 C 175.100 237.748,178.921 235.731,181.840 234.240 C 184.758 232.749,187.190 231.492,187.244 231.448 C 187.452 231.278,186.893 231.393,186.557 231.589 M239.269 269.081 C 238.278 269.517,232.630 271.443,231.014 271.896 C 230.495 272.041,229.275 272.380,228.302 272.650 C 227.329 272.919,226.404 273.181,226.247 273.233 C 226.006 273.313,227.055 276.426,227.459 276.830 C 227.509 276.880,228.872 276.018,230.489 274.914 C 233.402 272.925,239.219 269.347,239.562 269.332 C 239.660 269.328,239.947 269.169,240.198 268.978 C 240.797 268.525,240.442 268.564,239.269 269.081 M271.698 284.880 C 271.698 284.996,271.211 285.632,270.617 286.293 L 269.535 287.496 270.159 287.733 C 270.502 287.864,271.387 288.248,272.125 288.586 C 276.072 290.396,282.251 292.352,279.458 290.908 C 276.332 289.291,274.238 287.734,272.936 286.058 C 271.837 284.642,271.698 284.510,271.698 284.880 M233.265 293.973 C 233.109 294.161,232.257 294.810,231.371 295.416 L 229.760 296.516 230.143 297.551 C 230.354 298.119,230.583 298.580,230.652 298.575 C 230.909 298.555,233.669 294.675,233.791 294.163 C 233.936 293.559,233.684 293.468,233.265 293.973 M126.769 294.605 C 126.250 294.703,125.280 294.790,124.612 294.798 C 123.089 294.815,122.854 295.238,123.696 296.453 C 124.486 297.592,124.455 298.378,123.582 299.333 C 122.390 300.639,119.853 306.021,118.877 309.316 C 118.131 311.835,117.895 312.744,117.589 314.269 C 116.053 321.930,116.347 329.331,118.422 335.226 C 121.425 343.759,124.321 347.463,130.965 351.271 L 132.095 351.918 131.756 351.136 C 131.570 350.706,131.184 349.838,130.899 349.208 C 129.924 347.056,128.077 341.692,127.233 338.561 C 124.510 328.465,124.011 325.207,124.002 317.453 C 123.991 309.109,124.919 303.305,127.502 295.546 C 127.909 294.323,127.953 294.380,126.769 294.605 M131.043 295.572 C 130.833 296.296,130.660 296.954,130.660 297.034 C 130.660 297.160,132.909 300.145,133.250 300.472 C 133.317 300.537,134.272 301.704,135.372 303.066 C 136.471 304.428,137.689 305.895,138.078 306.326 C 138.932 307.272,141.601 309.534,140.895 308.714 C 139.882 307.537,136.363 302.425,135.531 300.921 C 135.058 300.066,134.458 299.174,134.198 298.939 C 133.939 298.704,133.726 298.411,133.726 298.288 C 133.726 298.165,133.389 297.571,132.978 296.968 C 132.566 296.366,132.048 295.509,131.827 295.064 L 131.426 294.255 131.043 295.572 M230.660 311.950 C 230.466 312.016,229.988 312.211,229.599 312.383 C 229.210 312.555,227.512 313.300,225.825 314.038 C 224.139 314.776,221.963 315.731,220.991 316.159 C 218.766 317.138,210.459 320.517,209.670 320.764 C 209.346 320.865,208.337 321.231,207.429 321.578 C 205.361 322.368,195.522 325.641,192.217 326.639 C 190.855 327.050,188.945 327.638,187.972 327.946 C 186.999 328.253,185.035 328.833,183.608 329.234 C 179.567 330.370,177.787 330.932,177.893 331.038 C 178.011 331.156,181.253 330.339,185.731 329.062 C 188.994 328.132,192.280 327.241,196.757 326.072 C 201.472 324.841,203.473 324.291,205.425 323.688 C 206.527 323.348,207.748 322.982,208.137 322.876 C 215.449 320.881,229.301 315.848,230.340 314.808 C 230.583 314.565,231.273 311.582,231.034 311.811 C 231.023 311.821,230.855 311.884,230.660 311.950 M272.995 336.020 C 272.217 336.343,271.368 336.690,271.108 336.793 C 270.849 336.896,270.251 337.149,269.780 337.356 C 269.309 337.562,268.462 337.928,267.897 338.167 C 266.892 338.594,266.882 338.610,267.415 338.895 C 267.715 339.055,268.636 339.760,269.461 340.460 L 270.962 341.733 272.754 338.643 C 274.828 335.068,274.809 335.269,272.995 336.020 M221.462 344.678 C 221.462 345.377,227.720 349.207,231.685 350.935 C 232.224 351.170,233.469 351.736,234.451 352.194 C 239.124 354.372,245.733 355.778,251.297 355.778 L 254.599 355.778 256.427 354.533 C 257.432 353.848,258.255 353.264,258.255 353.236 C 258.255 353.207,256.158 353.180,253.597 353.175 C 248.994 353.166,247.892 353.044,241.863 351.877 C 241.344 351.777,240.336 351.587,239.623 351.455 C 238.437 351.236,235.065 350.258,231.486 349.095 C 228.195 348.025,224.424 346.310,222.465 344.991 C 221.701 344.477,221.462 344.403,221.462 344.678 " stroke="none" fill="#d49c24" fill-rule="evenodd"></path><path id="path5" d="M146.061 190.330 C 146.061 191.044,146.105 191.335,146.159 190.979 C 146.214 190.622,146.214 190.038,146.159 189.682 C 146.105 189.325,146.061 189.617,146.061 190.330 M158.726 203.376 C 158.726 203.416,159.071 203.761,159.493 204.142 L 160.259 204.835 159.567 204.068 C 158.921 203.354,158.726 203.193,158.726 203.376 M162.251 223.762 L 161.439 224.646 162.323 223.833 C 163.146 223.077,163.316 222.877,163.136 222.877 C 163.096 222.877,162.698 223.275,162.251 223.762 M164.726 226.474 L 164.033 227.241 164.800 226.548 C 165.221 226.167,165.566 225.822,165.566 225.781 C 165.566 225.599,165.371 225.760,164.726 226.474 M158.950 227.064 L 158.137 227.948 159.021 227.135 C 159.508 226.688,159.906 226.290,159.906 226.251 C 159.906 226.071,159.706 226.240,158.950 227.064 M171.642 230.827 C 171.935 230.884,172.360 230.881,172.585 230.822 C 172.811 230.763,172.571 230.717,172.052 230.720 C 171.533 230.722,171.349 230.771,171.642 230.827 M168.691 233.889 C 168.918 233.948,169.290 233.948,169.517 233.889 C 169.744 233.830,169.558 233.781,169.104 233.781 C 168.650 233.781,168.464 233.830,168.691 233.889 M174.587 233.889 C 174.814 233.948,175.186 233.948,175.413 233.889 C 175.640 233.830,175.454 233.781,175.000 233.781 C 174.546 233.781,174.360 233.830,174.587 233.889 M270.270 286.498 L 269.458 287.382 270.342 286.569 C 271.165 285.813,271.335 285.613,271.155 285.613 C 271.115 285.613,270.717 286.011,270.270 286.498 M147.288 316.274 C 147.794 316.792,148.262 317.217,148.327 317.217 C 148.392 317.217,148.030 316.792,147.524 316.274 C 147.017 315.755,146.549 315.330,146.484 315.330 C 146.420 315.330,146.781 315.755,147.288 316.274 M123.888 317.099 C 123.890 317.748,123.936 317.985,123.990 317.626 C 124.044 317.268,124.043 316.737,123.987 316.447 C 123.931 316.157,123.886 316.450,123.888 317.099 M177.678 394.693 C 177.677 395.861,177.717 396.368,177.767 395.821 C 177.816 395.273,177.817 394.318,177.768 393.698 C 177.719 393.078,177.679 393.526,177.678 394.693 " stroke="none" fill="#99772b" fill-rule="evenodd"></path><path id="path6" d="M187.111 191.745 C 187.111 192.848,187.151 193.299,187.201 192.748 C 187.251 192.196,187.251 191.294,187.201 190.743 C 187.151 190.192,187.111 190.643,187.111 191.745 M137.099 191.745 C 137.099 192.459,137.143 192.751,137.197 192.394 C 137.251 192.037,137.251 191.453,137.197 191.097 C 137.143 190.740,137.099 191.032,137.099 191.745 M128.847 193.042 C 128.848 193.821,128.892 194.111,128.945 193.687 C 128.997 193.263,128.996 192.626,128.942 192.272 C 128.888 191.917,128.845 192.264,128.847 193.042 M178.121 195.755 C 178.121 196.209,178.169 196.394,178.229 196.167 C 178.288 195.940,178.288 195.569,178.229 195.342 C 178.169 195.115,178.121 195.301,178.121 195.755 M160.142 199.410 C 160.582 199.864,160.995 200.236,161.060 200.236 C 161.124 200.236,160.817 199.864,160.377 199.410 C 159.937 198.956,159.524 198.585,159.459 198.585 C 159.394 198.585,159.701 198.956,160.142 199.410 M138.738 203.229 C 138.965 203.288,139.337 203.288,139.564 203.229 C 139.791 203.169,139.605 203.121,139.151 203.121 C 138.697 203.121,138.511 203.169,138.738 203.229 M168.106 204.652 C 168.530 204.705,169.166 204.703,169.521 204.650 C 169.875 204.596,169.528 204.553,168.750 204.554 C 167.972 204.556,167.682 204.600,168.106 204.652 M134.301 205.483 L 133.608 206.250 134.375 205.557 C 134.797 205.176,135.142 204.831,135.142 204.791 C 135.142 204.609,134.947 204.769,134.301 205.483 M169.870 208.417 C 170.097 208.477,170.469 208.477,170.696 208.417 C 170.923 208.358,170.737 208.309,170.283 208.309 C 169.829 208.309,169.643 208.358,169.870 208.417 M201.526 219.163 L 200.118 220.637 201.592 219.229 C 202.403 218.455,203.066 217.792,203.066 217.755 C 203.066 217.581,202.833 217.793,201.526 219.163 M119.799 219.752 L 118.986 220.637 119.870 219.824 C 120.693 219.068,120.863 218.868,120.683 218.868 C 120.644 218.868,120.246 219.266,119.799 219.752 M203.880 221.050 L 202.948 222.052 203.950 221.120 C 204.883 220.253,205.061 220.047,204.883 220.047 C 204.844 220.047,204.393 220.498,203.880 221.050 M160.601 225.413 L 159.788 226.297 160.672 225.484 C 161.495 224.728,161.665 224.528,161.485 224.528 C 161.446 224.528,161.048 224.926,160.601 225.413 M157.179 229.068 L 156.486 229.835 157.252 229.142 C 157.674 228.761,158.019 228.416,158.019 228.376 C 158.019 228.193,157.824 228.354,157.179 229.068 M119.693 229.717 C 120.332 230.366,120.908 230.896,120.973 230.896 C 121.038 230.896,120.568 230.366,119.929 229.717 C 119.290 229.068,118.715 228.538,118.650 228.538 C 118.585 228.538,119.055 229.068,119.693 229.717 M169.752 230.827 C 170.044 230.883,170.522 230.883,170.814 230.827 C 171.106 230.771,170.867 230.725,170.283 230.725 C 169.699 230.725,169.460 230.771,169.752 230.827 M173.290 230.827 C 173.582 230.883,174.060 230.883,174.351 230.827 C 174.643 230.771,174.404 230.725,173.821 230.725 C 173.237 230.725,172.998 230.771,173.290 230.827 M170.940 233.901 C 171.625 233.948,172.686 233.948,173.298 233.899 C 173.910 233.851,173.349 233.812,172.052 233.813 C 170.755 233.813,170.254 233.853,170.940 233.901 M237.367 254.068 L 236.675 254.835 237.441 254.142 C 238.156 253.496,238.316 253.302,238.134 253.302 C 238.093 253.302,237.748 253.647,237.367 254.068 M232.179 254.304 L 231.486 255.071 232.252 254.378 C 232.674 253.997,233.019 253.652,233.019 253.612 C 233.019 253.429,232.824 253.590,232.179 254.304 M229.824 256.427 L 228.892 257.429 229.894 256.497 C 230.826 255.630,231.005 255.425,230.826 255.425 C 230.788 255.425,230.337 255.876,229.824 256.427 M232.658 258.785 L 231.250 260.259 232.724 258.852 C 233.535 258.077,234.198 257.414,234.198 257.378 C 234.198 257.203,233.965 257.416,232.658 258.785 M227.226 258.785 L 226.533 259.552 227.300 258.859 C 227.721 258.478,228.066 258.133,228.066 258.093 C 228.066 257.910,227.871 258.071,227.226 258.785 M222.995 262.972 C 221.443 264.528,220.226 265.802,220.290 265.802 C 220.355 265.802,221.679 264.528,223.231 262.972 C 224.784 261.415,226.001 260.142,225.936 260.142 C 225.871 260.142,224.548 261.415,222.995 262.972 M219.653 261.910 C 219.654 262.818,219.697 263.161,219.748 262.672 C 219.799 262.182,219.798 261.439,219.746 261.021 C 219.694 260.602,219.652 261.002,219.653 261.910 M229.588 261.616 L 228.656 262.618 229.658 261.686 C 230.590 260.819,230.769 260.613,230.590 260.613 C 230.552 260.613,230.101 261.064,229.588 261.616 M225.352 265.519 C 224.053 266.777,223.363 267.488,223.817 267.099 C 225.205 265.910,228.025 263.207,227.864 263.219 C 227.781 263.226,226.650 264.261,225.352 265.519 M138.932 276.061 C 138.932 276.191,139.083 276.563,139.269 276.887 C 139.454 277.211,139.606 277.370,139.606 277.241 C 139.606 277.111,139.454 276.739,139.269 276.415 C 139.083 276.091,138.932 275.932,138.932 276.061 M257.968 277.061 C 258.653 277.109,259.714 277.108,260.326 277.060 C 260.938 277.011,260.377 276.972,259.080 276.973 C 257.783 276.974,257.282 277.013,257.968 277.061 M252.182 277.285 C 252.409 277.345,252.780 277.345,253.007 277.285 C 253.234 277.226,253.048 277.177,252.594 277.177 C 252.140 277.177,251.955 277.226,252.182 277.285 M136.932 281.250 C 136.720 281.574,136.582 281.840,136.627 281.840 C 136.671 281.840,136.938 281.574,137.220 281.250 C 137.502 280.926,137.640 280.660,137.526 280.660 C 137.412 280.660,137.145 280.926,136.932 281.250 M141.981 281.288 C 141.981 281.416,142.273 281.779,142.630 282.093 L 143.278 282.665 142.689 281.958 C 142.364 281.568,142.073 281.206,142.040 281.152 C 142.008 281.098,141.981 281.159,141.981 281.288 M144.693 284.434 C 145.464 285.212,146.147 285.849,146.212 285.849 C 146.277 285.849,145.699 285.212,144.929 284.434 C 144.159 283.656,143.476 283.019,143.411 283.019 C 143.346 283.019,143.923 283.656,144.693 284.434 M281.455 286.085 C 281.455 287.447,281.494 288.004,281.542 287.323 C 281.589 286.642,281.589 285.528,281.542 284.847 C 281.494 284.166,281.455 284.723,281.455 286.085 M142.689 287.146 C 143.786 288.249,144.736 289.151,144.801 289.151 C 144.866 289.151,144.021 288.249,142.925 287.146 C 141.828 286.044,140.877 285.142,140.812 285.142 C 140.747 285.142,141.592 286.044,142.689 287.146 M146.934 286.377 C 146.934 286.438,148.287 287.747,149.941 289.287 C 151.595 290.827,152.736 291.838,152.476 291.535 C 151.870 290.826,146.934 286.233,146.934 286.377 M145.991 290.212 C 146.431 290.666,146.844 291.038,146.909 291.038 C 146.973 291.038,146.666 290.666,146.226 290.212 C 145.786 289.758,145.373 289.387,145.308 289.387 C 145.244 289.387,145.551 289.758,145.991 290.212 M153.302 292.291 C 153.302 292.331,153.647 292.676,154.068 293.057 L 154.835 293.750 154.142 292.983 C 153.496 292.269,153.302 292.109,153.302 292.291 M219.517 298.482 C 218.641 298.931,217.925 299.352,217.925 299.417 C 217.925 299.481,218.667 299.160,219.575 298.703 C 220.483 298.246,221.226 297.820,221.226 297.756 C 221.226 297.598,221.292 297.570,219.517 298.482 M223.526 300.135 C 222.644 300.613,222.698 300.812,223.585 300.354 C 223.974 300.153,224.292 299.938,224.292 299.876 C 224.292 299.724,224.267 299.733,223.526 300.135 M127.177 312.736 C 127.177 313.190,127.226 313.376,127.285 313.149 C 127.345 312.922,127.345 312.550,127.285 312.323 C 127.226 312.096,127.177 312.282,127.177 312.736 M127.182 321.816 C 127.185 322.335,127.233 322.519,127.289 322.226 C 127.346 321.933,127.344 321.508,127.285 321.283 C 127.226 321.057,127.180 321.297,127.182 321.816 M250.887 353.233 C 251.181 353.289,251.605 353.287,251.831 353.228 C 252.056 353.169,251.816 353.123,251.297 353.126 C 250.778 353.128,250.594 353.176,250.887 353.233 M255.368 353.233 C 255.662 353.289,256.086 353.287,256.312 353.228 C 256.537 353.169,256.297 353.123,255.778 353.126 C 255.259 353.128,255.075 353.176,255.368 353.233 M203.715 372.808 C 204.006 372.864,204.484 372.864,204.776 372.808 C 205.068 372.752,204.829 372.706,204.245 372.706 C 203.662 372.706,203.423 372.752,203.715 372.808 M194.045 373.280 C 194.337 373.336,194.814 373.336,195.106 373.280 C 195.398 373.223,195.159 373.177,194.575 373.177 C 193.992 373.177,193.753 373.223,194.045 373.280 M188.031 373.518 C 188.387 373.572,188.971 373.572,189.328 373.518 C 189.685 373.464,189.393 373.420,188.679 373.420 C 187.966 373.420,187.674 373.464,188.031 373.518 M176.960 377.005 C 176.961 377.783,177.005 378.073,177.058 377.649 C 177.110 377.225,177.109 376.588,177.055 376.234 C 177.001 375.880,176.959 376.226,176.960 377.005 M177.654 391.863 C 177.656 392.382,177.705 392.567,177.761 392.273 C 177.818 391.980,177.815 391.555,177.756 391.330 C 177.697 391.104,177.651 391.344,177.654 391.863 M176.234 412.500 C 176.234 412.954,176.282 413.140,176.342 412.913 C 176.401 412.686,176.401 412.314,176.342 412.087 C 176.282 411.860,176.234 412.046,176.234 412.500 M165.979 416.204 C 166.271 416.260,166.748 416.260,167.040 416.204 C 167.332 416.148,167.093 416.102,166.509 416.102 C 165.926 416.102,165.687 416.148,165.979 416.204 M169.281 416.204 C 169.573 416.260,170.050 416.260,170.342 416.204 C 170.634 416.148,170.395 416.102,169.811 416.102 C 169.228 416.102,168.989 416.148,169.281 416.204 M228.945 418.802 C 229.364 418.854,230.107 418.855,230.596 418.804 C 231.085 418.753,230.743 418.711,229.835 418.709 C 228.927 418.708,228.527 418.750,228.945 418.802 " stroke="none" fill="#745c22" fill-rule="evenodd"></path><path id="path7" d="M176.238 150.173 C 176.854 150.222,177.863 150.222,178.479 150.173 C 179.095 150.125,178.591 150.085,177.358 150.085 C 176.126 150.085,175.622 150.125,176.238 150.173 M177.697 216.333 L 177.005 217.099 177.771 216.406 C 178.193 216.025,178.538 215.680,178.538 215.640 C 178.538 215.458,178.343 215.618,177.697 216.333 M163.311 227.889 L 162.618 228.656 163.384 227.963 C 163.806 227.582,164.151 227.237,164.151 227.196 C 164.151 227.014,163.956 227.175,163.311 227.889 M269.511 259.368 C 269.930 259.420,270.673 259.421,271.162 259.370 C 271.652 259.319,271.309 259.277,270.401 259.276 C 269.493 259.274,269.093 259.316,269.511 259.368 M124.351 294.744 C 124.708 294.798,125.292 294.798,125.649 294.744 C 126.005 294.690,125.713 294.646,125.000 294.646 C 124.287 294.646,123.995 294.690,124.351 294.744 " stroke="none" fill="#c99f41" fill-rule="evenodd"></path><path id="path8" d="M178.133 192.571 C 178.135 193.219,178.181 193.457,178.235 193.098 C 178.289 192.740,178.288 192.209,178.232 191.919 C 178.176 191.629,178.132 191.922,178.133 192.571 M136.852 194.222 C 136.855 194.741,136.903 194.925,136.959 194.632 C 137.016 194.338,137.014 193.914,136.955 193.688 C 136.895 193.463,136.849 193.703,136.852 194.222 M176.120 237.163 C 175.239 237.642,175.292 237.841,176.179 237.382 C 176.568 237.181,176.887 236.966,176.887 236.904 C 176.887 236.753,176.861 236.761,176.120 237.163 M173.526 238.578 C 172.644 239.057,172.698 239.256,173.585 238.797 C 173.974 238.596,174.292 238.381,174.292 238.319 C 174.292 238.168,174.267 238.176,173.526 238.578 M163.856 243.648 C 163.370 243.905,162.972 244.168,162.972 244.232 C 162.972 244.297,163.396 244.133,163.915 243.868 C 164.434 243.603,164.858 243.336,164.858 243.274 C 164.858 243.119,164.857 243.120,163.856 243.648 M159.198 246.108 C 158.614 246.421,158.221 246.682,158.323 246.687 C 158.574 246.702,160.377 245.775,160.377 245.632 C 160.377 245.476,160.387 245.472,159.198 246.108 M241.215 268.411 C 240.469 268.796,239.858 269.164,239.858 269.229 C 239.858 269.334,242.665 267.998,242.905 267.779 C 243.214 267.496,242.393 267.803,241.215 268.411 M232.604 273.471 C 231.535 274.187,230.660 274.827,230.660 274.893 C 230.660 275.011,234.088 272.784,234.540 272.374 C 235.081 271.882,234.409 272.263,232.604 273.471 M271.935 284.572 C 271.936 284.690,272.210 285.106,272.544 285.495 L 273.152 286.203 272.619 285.377 C 271.936 284.318,271.934 284.316,271.935 284.572 M273.821 287.146 C 274.261 287.600,274.674 287.972,274.739 287.972 C 274.804 287.972,274.497 287.600,274.057 287.146 C 273.617 286.692,273.203 286.321,273.139 286.321 C 273.074 286.321,273.381 286.692,273.821 287.146 M277.123 289.602 C 277.447 289.867,277.818 290.085,277.948 290.085 C 278.200 290.087,277.774 289.761,277.005 289.363 C 276.691 289.201,276.731 289.281,277.123 289.602 M231.663 297.347 C 230.938 298.279,230.414 299.121,230.820 298.703 C 231.291 298.216,232.582 296.462,232.469 296.462 C 232.404 296.462,232.041 296.860,231.663 297.347 M131.223 298.183 C 131.723 298.793,132.181 299.292,132.242 299.292 C 132.402 299.292,130.909 297.441,130.588 297.243 C 130.438 297.150,130.723 297.573,131.223 298.183 M134.877 302.794 C 135.272 303.293,135.782 303.850,136.011 304.032 C 136.239 304.214,135.961 303.806,135.393 303.125 C 134.202 301.697,133.808 301.444,134.877 302.794 M137.500 305.809 C 137.500 305.934,137.951 306.456,138.502 306.969 L 139.505 307.901 138.561 306.843 C 138.042 306.262,137.591 305.740,137.559 305.684 C 137.527 305.628,137.500 305.684,137.500 305.809 M140.566 308.844 C 141.006 309.298,141.419 309.670,141.484 309.670 C 141.549 309.670,141.242 309.298,140.802 308.844 C 140.362 308.390,139.949 308.019,139.884 308.019 C 139.819 308.019,140.126 308.390,140.566 308.844 M230.679 314.132 C 230.669 314.317,230.479 314.688,230.256 314.958 C 229.875 315.420,229.884 315.419,230.402 314.942 C 230.705 314.664,230.895 314.292,230.825 314.117 C 230.722 313.858,230.694 313.861,230.679 314.132 M226.415 316.627 C 226.091 316.813,225.932 316.964,226.061 316.964 C 226.191 316.964,226.563 316.813,226.887 316.627 C 227.211 316.442,227.370 316.290,227.241 316.290 C 227.111 316.290,226.739 316.442,226.415 316.627 M221.254 344.488 C 221.239 344.764,221.412 345.135,221.639 345.313 C 221.998 345.595,222.017 345.591,221.782 345.283 C 221.634 345.088,221.461 344.717,221.397 344.458 C 221.287 344.010,221.280 344.011,221.254 344.488 M223.585 346.536 C 223.585 346.590,224.036 346.933,224.587 347.296 C 225.139 347.660,225.465 347.807,225.313 347.623 C 225.020 347.268,223.585 346.365,223.585 346.536 M252.889 349.697 C 253.246 349.751,253.830 349.751,254.186 349.697 C 254.543 349.643,254.251 349.599,253.538 349.599 C 252.824 349.599,252.532 349.643,252.889 349.697 M229.953 350.354 C 230.277 350.539,230.649 350.691,230.778 350.691 C 230.908 350.691,230.749 350.539,230.425 350.354 C 230.100 350.168,229.729 350.017,229.599 350.017 C 229.469 350.017,229.629 350.168,229.953 350.354 M247.821 355.827 C 248.115 355.884,248.539 355.881,248.765 355.822 C 248.990 355.763,248.750 355.717,248.231 355.720 C 247.712 355.722,247.528 355.771,247.821 355.827 M250.649 356.067 C 251.070 356.119,251.760 356.119,252.182 356.067 C 252.603 356.015,252.258 355.972,251.415 355.972 C 250.572 355.972,250.227 356.015,250.649 356.067 M196.521 373.040 C 196.748 373.099,197.120 373.099,197.347 373.040 C 197.574 372.981,197.388 372.932,196.934 372.932 C 196.480 372.932,196.294 372.981,196.521 373.040 " stroke="none" fill="#dca42c" fill-rule="evenodd"></path></g></svg>